<svg width="261" height="60" viewBox="0 0 261 60" fill="none" xmlns="http://www.w3.org/2000/svg">
<rect width="121" height="60" rx="10" fill="#F1E2B3"/>
<path d="M37.432 21.68H30.008V42H26.92V21.68H19.48V19.072H37.432V21.68ZM54.9783 39.472L54.9623 42H40.8343V19.072H54.9623V21.6H43.9383V29.216H52.8663V31.648H43.9383V39.472H54.9783ZM74.899 37.264C75.0697 37.264 75.219 37.3333 75.347 37.472L76.579 38.8C75.6403 39.888 74.499 40.736 73.155 41.344C71.8217 41.952 70.2057 42.256 68.307 42.256C66.6643 42.256 65.171 41.9733 63.827 41.408C62.483 40.832 61.3363 40.032 60.387 39.008C59.4377 37.9733 58.7017 36.736 58.179 35.296C57.6563 33.856 57.395 32.272 57.395 30.544C57.395 28.816 57.667 27.232 58.211 25.792C58.755 24.352 59.5177 23.1147 60.499 22.08C61.491 21.0453 62.675 20.2453 64.051 19.68C65.427 19.104 66.947 18.816 68.611 18.816C70.243 18.816 71.683 19.0773 72.931 19.6C74.179 20.1227 75.2777 20.832 76.227 21.728L75.203 23.152C75.139 23.2587 75.0537 23.3493 74.947 23.424C74.851 23.488 74.7177 23.52 74.547 23.52C74.355 23.52 74.1203 23.4187 73.843 23.216C73.5657 23.0027 73.203 22.768 72.755 22.512C72.307 22.256 71.747 22.0267 71.075 21.824C70.403 21.6107 69.5763 21.504 68.595 21.504C67.411 21.504 66.3283 21.712 65.347 22.128C64.3657 22.5333 63.5177 23.1253 62.803 23.904C62.099 24.6827 61.5497 25.632 61.155 26.752C60.7603 27.872 60.563 29.136 60.563 30.544C60.563 31.9733 60.7657 33.248 61.171 34.368C61.587 35.488 62.147 36.4373 62.851 37.216C63.5657 37.984 64.403 38.5707 65.363 38.976C66.3337 39.3813 67.379 39.584 68.499 39.584C69.1817 39.584 69.795 39.5467 70.339 39.472C70.8937 39.3867 71.4003 39.2587 71.859 39.088C72.3283 38.9173 72.7603 38.704 73.155 38.448C73.5603 38.1813 73.9603 37.8667 74.355 37.504C74.5363 37.344 74.7177 37.264 74.899 37.264ZM98.754 19.072V42H95.65V31.568H83.282V42H80.178V19.072H83.282V29.296H95.65V19.072H98.754Z" fill="#49656A"/>
<path d="M150.096 30.496C150.885 30.496 151.573 30.4 152.16 30.208C152.747 30.0053 153.232 29.7227 153.616 29.36C154.011 28.9867 154.304 28.5387 154.496 28.016C154.688 27.4827 154.784 26.8907 154.784 26.24C154.784 25.6213 154.688 25.0613 154.496 24.56C154.304 24.0587 154.016 23.632 153.632 23.28C153.248 22.928 152.763 22.6613 152.176 22.48C151.589 22.288 150.896 22.192 150.096 22.192H146.88V30.496H150.096ZM150.096 18.864C151.643 18.864 152.981 19.0453 154.112 19.408C155.243 19.7707 156.176 20.2773 156.912 20.928C157.648 21.5787 158.192 22.3573 158.544 23.264C158.907 24.1707 159.088 25.1627 159.088 26.24C159.088 27.36 158.901 28.3893 158.528 29.328C158.155 30.256 157.595 31.056 156.848 31.728C156.101 32.4 155.163 32.9227 154.032 33.296C152.912 33.6693 151.6 33.856 150.096 33.856H146.88V42H142.576V18.864H150.096ZM175.941 38.448V42H162.389V18.864H166.693V38.448H175.941ZM191.238 33.264L188.422 25.568C188.283 25.2267 188.139 24.8213 187.99 24.352C187.84 23.8827 187.691 23.376 187.542 22.832C187.403 23.376 187.259 23.888 187.11 24.368C186.96 24.8373 186.816 25.248 186.678 25.6L183.878 33.264H191.238ZM198.838 42H195.51C195.136 42 194.832 41.9093 194.598 41.728C194.363 41.536 194.187 41.3013 194.069 41.024L192.342 36.304H182.758L181.03 41.024C180.944 41.2693 180.779 41.4933 180.534 41.696C180.288 41.8987 179.984 42 179.622 42H176.261L185.366 18.864H189.75L198.838 42ZM220.736 18.864V42H218.528C218.187 42 217.899 41.9467 217.664 41.84C217.44 41.7227 217.222 41.5307 217.008 41.264L204.928 25.84C204.992 26.544 205.024 27.1947 205.024 27.792V42H201.232V18.864H203.488C203.67 18.864 203.824 18.8747 203.952 18.896C204.091 18.9067 204.208 18.9387 204.304 18.992C204.411 19.0347 204.512 19.104 204.608 19.2C204.704 19.2853 204.811 19.4027 204.928 19.552L217.056 35.04C217.024 34.6667 216.998 34.2987 216.976 33.936C216.955 33.5733 216.944 33.2373 216.944 32.928V18.864H220.736ZM230.209 22.288V28.704H238.305V32.016H230.209V38.56H240.481V42H225.889V18.864H240.481V22.288H230.209ZM260.455 22.4H253.479V42H249.175V22.4H242.199V18.864H260.455V22.4Z" fill="#F1E2B3"/>
</svg>
